<svg width="64" height="64" viewBox="0 0 64 64" fill="none" xmlns="http://www.w3.org/2000/svg">
  <g clip-path="url(#clip0_27_120)">
    <path fill-rule="evenodd" clip-rule="evenodd"
      d="M40 12.3333C40 6.62639 44.6264 2 50.3333 2C56.0403 2 60.6667 6.62639 60.6667 12.3333C60.6667 14.4632 60.0223 16.4426 58.9178 18.0872L63.4146 22.586C64.1954 23.3672 64.1951 24.6335 63.4139 25.4144C62.6327 26.1953 61.3663 26.195 60.5855 25.4138L56.0898 20.916C54.4447 22.0216 52.4644 22.6667 50.3333 22.6667C44.6264 22.6667 40 18.0403 40 12.3333ZM56.6667 12.3333C56.6667 14.0631 55.9732 15.6309 54.8492 16.7739L54.8128 16.8093L54.776 16.8471C53.6328 17.9724 52.0642 18.6667 50.3333 18.6667C46.8355 18.6667 44 15.8311 44 12.3333C44 8.83553 46.8355 6 50.3333 6C53.8312 6 56.6667 8.83553 56.6667 12.3333Z"
      fill="black" />
    <path
      d="M4.58579 10.5858C4.96085 10.2107 5.46958 10 6 10H34C35.1046 10 36 9.10457 36 8C36 6.89543 35.1046 6 34 6H6C4.40872 6 2.88258 6.63215 1.75737 7.75735C0.63214 8.88257 0 10.4087 0 12V16C0 17.5913 0.632132 19.1174 1.75737 20.2427C2.88256 21.3678 4.40871 22 6 22H34C35.1046 22 36 21.1046 36 20C36 18.8954 35.1046 18 34 18H6C5.46958 18 4.96085 17.7893 4.58579 17.4142C4.21073 17.0392 4 16.5304 4 16V12C4 11.4696 4.21073 10.9608 4.58579 10.5858Z"
      fill="black" />
    <path
      d="M14 32C14 30.8954 14.8954 30 16 30H48C49.1046 30 50 30.8954 50 32C50 33.1046 49.1046 34 48 34H16C14.8954 34 14 33.1046 14 32Z"
      fill="black" />
    <path
      d="M16 44C14.8954 44 14 44.8954 14 46C14 47.1046 14.8954 48 16 48H48C49.1046 48 50 47.1046 50 46C50 44.8954 49.1046 44 48 44H16Z"
      fill="black" />
    <path
      d="M14 60C14 58.8954 14.8954 58 16 58H48C49.1046 58 50 58.8954 50 60C50 61.1046 49.1046 62 48 62H16C14.8954 62 14 61.1046 14 60Z"
      fill="black" />
    <path
      d="M7.03607 35.1368C8.76853 35.1368 10.173 33.7324 10.173 31.9999C10.173 30.2675 8.76853 28.863 7.03607 28.863C5.30361 28.863 3.89917 30.2675 3.89917 31.9999C3.89917 33.7324 5.30361 35.1368 7.03607 35.1368Z"
      fill="black" />
    <path
      d="M10.173 45.9999C10.173 47.7324 8.76853 49.1368 7.03607 49.1368C5.30361 49.1368 3.89917 47.7324 3.89917 45.9999C3.89917 44.2675 5.30361 42.863 7.03607 42.863C8.76853 42.863 10.173 44.2675 10.173 45.9999Z"
      fill="black" />
    <path
      d="M7.03607 63.1368C8.76853 63.1368 10.173 61.7324 10.173 59.9999C10.173 58.2675 8.76853 56.863 7.03607 56.863C5.30361 56.863 3.89917 58.2675 3.89917 59.9999C3.89917 61.7324 5.30361 63.1368 7.03607 63.1368Z"
      fill="black" />
  </g>
  <defs>
    <clipPath id="clip0_27_120">
      <rect width="64" height="64" fill="white" />
    </clipPath>
  </defs>
</svg>