<svg width="64" height="64" viewBox="0 0 64 64" fill="none" xmlns="http://www.w3.org/2000/svg">
  <path fill-rule="evenodd" clip-rule="evenodd"
    d="M29.7594 46.4826C29.7594 45.378 30.6548 44.4826 31.7594 44.4826H53.1398C54.2444 44.4826 55.1398 45.378 55.1398 46.4826C55.1398 47.5872 54.2444 48.4826 53.1398 48.4826H31.7594C30.6548 48.4826 29.7594 47.5872 29.7594 46.4826Z"
    fill="black" />
  <path fill-rule="evenodd" clip-rule="evenodd"
    d="M10.0711 14.1034C10.8522 13.3223 12.1185 13.3223 12.8996 14.1034L28.3612 29.565C29.1422 30.346 29.1422 31.6123 28.3612 32.3934L12.8996 47.855C12.1185 48.636 10.8522 48.636 10.0711 47.855C9.29009 47.0739 9.29009 45.8076 10.0711 45.0266L24.1185 30.9792L10.0711 16.9318C9.29009 16.1507 9.29009 14.8844 10.0711 14.1034Z"
    fill="black" />
  <path
    d="M47.7369 7.74447C47.4617 7.09289 46.5383 7.09289 46.2631 7.74447L43.8596 13.4339C43.7785 13.6258 43.6258 13.7785 43.4339 13.8596L37.7445 16.2631C37.0929 16.5383 37.0929 17.4617 37.7445 17.7369L43.4339 20.1404C43.6258 20.2215 43.7785 20.3742 43.8596 20.5661L46.2631 26.2555C46.5383 26.9071 47.4617 26.9071 47.7369 26.2555L50.1404 20.5661C50.2215 20.3742 50.3742 20.2215 50.5661 20.1404L56.2555 17.7369C56.9071 17.4617 56.9071 16.5383 56.2555 16.2631L50.5661 13.8596C50.3742 13.7785 50.2215 13.6258 50.1404 13.4339L47.7369 7.74447Z"
    fill="black" />
  <path
    d="M28.3685 2.87223C28.2308 2.54645 27.7692 2.54645 27.6315 2.87223L26.2813 6.06848C26.2408 6.16442 26.1644 6.24077 26.0685 6.28129L22.8722 7.63153C22.5464 7.76916 22.5464 8.23084 22.8722 8.36847L26.0685 9.71871C26.1644 9.75923 26.2408 9.83558 26.2813 9.93152L27.6315 13.1278C27.7692 13.4536 28.2308 13.4536 28.3685 13.1278L29.7187 9.93152C29.7592 9.83558 29.8356 9.75923 29.9315 9.71871L33.1278 8.36847C33.4536 8.23084 33.4536 7.76916 33.1278 7.63153L29.9315 6.28129C29.8356 6.24077 29.7592 6.16442 29.7187 6.06848L28.3685 2.87223Z"
    fill="black" />
</svg>