<svg width="64" height="64" viewBox="0 0 64 64" fill="none" xmlns="http://www.w3.org/2000/svg">
  <path
    d="M50.0067 44.0377C50.141 44.1857 50.3227 44.2821 50.5206 44.3103C50.7184 44.3385 50.9199 44.2966 51.0901 44.192C52.8744 43.0973 54.2823 41.4842 55.1255 39.5682C55.9688 37.6522 56.2074 35.5245 55.8094 33.4693C55.4114 31.4141 54.3958 29.5293 52.8982 28.0666C51.4006 26.6039 49.4924 25.6329 47.4284 25.2834C47.3035 22.6416 46.4611 20.0837 44.9917 17.8847C43.5223 15.6856 41.4815 13.9285 39.0885 12.8022C36.6956 11.6759 34.0409 11.2229 31.4099 11.4919C28.7788 11.7609 26.2707 12.7418 24.1553 14.3292C24.0598 14.4011 23.9803 14.4922 23.9219 14.5965C23.8636 14.7009 23.8276 14.8162 23.8163 14.9353C23.805 15.0543 23.8187 15.1744 23.8564 15.2879C23.8941 15.4013 23.955 15.5057 24.0353 15.5943L50.0067 44.0377Z"
    fill="black" />
  <path
    d="M48.457 49.9795L12.457 10.5509C11.9822 10.1148 11.361 9.87292 10.7164 9.87317C10.0718 9.87341 9.4508 10.1158 8.9764 10.5522C8.50201 10.9886 8.20884 11.5873 8.15497 12.2297C8.1011 12.8721 8.29046 13.5112 8.68554 14.0206L16.2627 22.3177C13.555 23.2104 11.2536 25.038 9.77078 27.4731C8.28795 29.9082 7.72056 32.7917 8.17026 35.6071C8.61996 38.4225 10.0574 40.9857 12.225 42.8377C14.3926 44.6898 17.1488 45.7095 19.9998 45.7143H37.6124L44.6855 53.4492C44.9037 53.7304 45.1778 53.9632 45.4905 54.133C45.8033 54.3028 46.1479 54.4059 46.5025 54.4356C46.8572 54.4653 47.2141 54.4211 47.5508 54.3058C47.8874 54.1905 48.1965 54.0065 48.4584 53.7656C48.7203 53.5246 48.9293 53.2319 49.0723 52.906C49.2152 52.5801 49.289 52.2281 49.2888 51.8722C49.2887 51.5163 49.2147 51.1643 49.0715 50.8385C48.9283 50.5127 48.7191 50.2202 48.457 49.9795Z"
    fill="black" />
</svg>