<svg width="64" height="64" viewBox="0 0 64 64" fill="none" xmlns="http://www.w3.org/2000/svg">
  <g clip-path="url(#clip0_27_116)">
    <path fill-rule="evenodd" clip-rule="evenodd"
      d="M51.6607 38.3431C52.7653 38.3431 53.6607 39.2385 53.6607 40.3431V48.8284C53.6607 49.9329 52.7653 50.8284 51.6607 50.8284C50.5562 50.8284 49.6607 49.9329 49.6607 48.8284V45.1715L41.7612 53.071C40.9802 53.8521 39.7139 53.8521 38.9328 53.071C38.1518 52.29 38.1518 51.0236 38.9328 50.2426L46.8323 42.3431H43.1755C42.0709 42.3431 41.1755 41.4477 41.1755 40.3431C41.1755 39.2385 42.0709 38.3431 43.1755 38.3431H51.6607Z"
      fill="black" />
    <path fill-rule="evenodd" clip-rule="evenodd"
      d="M39.1156 29.3701C41.2994 28.4655 43.6401 27.9999 46.0039 27.9999C48.3677 27.9999 50.7083 28.4655 52.8922 29.3701C55.076 30.2747 57.0604 31.6006 58.7318 33.272C60.4033 34.9435 61.7291 36.9278 62.6337 39.1116C63.5383 41.2955 64.0039 43.6361 64.0039 45.9999C64.0039 48.3637 63.5383 50.7044 62.6337 52.8882C61.7291 55.0721 60.4033 57.0564 58.7318 58.7279C57.0603 60.3993 55.076 61.7252 52.8922 62.6298C50.7083 63.5344 48.3677 63.9999 46.0039 63.9999C43.6401 63.9999 41.2994 63.5344 39.1156 62.6298C36.9317 61.7252 34.9474 60.3993 33.276 58.7279C31.6045 57.0564 30.2786 55.0721 29.374 52.8882C28.4695 50.7044 28.0039 48.3637 28.0039 45.9999C28.0039 43.6361 28.4695 41.2955 29.374 39.1116C30.2786 36.9278 31.6045 34.9435 33.276 33.272C34.9474 31.6006 36.9317 30.2747 39.1156 29.3701ZM46.0039 31.9999C44.1654 31.9999 42.3449 32.3621 40.6463 33.0656C38.9478 33.7692 37.4044 34.8004 36.1044 36.1004C34.8044 37.4005 33.7731 38.9438 33.0696 40.6424C32.366 42.3409 32.0039 44.1614 32.0039 45.9999C32.0039 47.8384 32.366 49.659 33.0696 51.3575C33.7731 53.0561 34.8044 54.5994 36.1044 55.8994C37.4044 57.1995 38.9478 58.2307 40.6463 58.9343C42.3449 59.6378 44.1654 59.9999 46.0039 59.9999C47.8424 59.9999 49.6629 59.6378 51.3614 58.9343C53.06 58.2307 54.6034 57.1995 55.9034 55.8994C57.2034 54.5994 58.2346 53.0561 58.9382 51.3575C59.6418 49.659 60.0039 47.8384 60.0039 45.9999C60.0039 44.1614 59.6418 42.3409 58.9382 40.6424C58.2346 38.9438 57.2034 37.4005 55.9034 36.1004C54.6034 34.8004 53.06 33.7692 51.3614 33.0656C49.6629 32.3621 47.8424 31.9999 46.0039 31.9999Z"
      fill="black" />
    <path fill-rule="evenodd" clip-rule="evenodd"
      d="M13.8348 6.15137C13.8348 5.0468 14.7303 4.15137 15.8348 4.15137H38.6785V12.6706C38.6794 14.2944 39.3249 15.8515 40.4731 16.9997C41.6214 18.1479 43.1795 18.7934 44.8033 18.7944H53.777V26.4573C53.777 27.5619 54.6724 28.4573 55.777 28.4573C56.8815 28.4573 57.777 27.5619 57.777 26.4573V16.0342C57.777 14.3261 57.049 12.6989 55.7754 11.5606L44.7183 1.67784C43.6185 0.694795 42.195 0.151372 40.7199 0.151372L40.5428 0.151367L15.8348 0.151372C12.5211 0.151372 9.83483 2.83766 9.83484 6.15138L9.83493 44.2489C9.83493 47.5626 12.5212 50.2489 15.8349 50.2489H24.4067C25.5113 50.2489 26.4067 49.3534 26.4067 48.2489C26.4067 47.1443 25.5113 46.2489 24.4067 46.2489H15.8349C14.7304 46.2489 13.8349 45.3534 13.8349 44.2489L13.8348 6.15137ZM42.4071 4.97693V2.01567C42.4071 0.986043 41.5724 0.151367 40.5428 0.151367C39.5131 0.151367 38.6785 0.986043 38.6785 2.01567V4.15137H40.7199C41.2116 4.15137 41.6861 4.33251 42.0527 4.6602L42.4071 4.97693ZM42.4071 4.97693L53.1098 14.543C53.279 14.6942 53.4193 14.8714 53.5269 15.0658H44.8044C44.1687 15.0654 43.5592 14.8127 43.1096 14.3632C42.6601 13.9137 42.4074 13.3041 42.4071 12.6684V4.97693Z"
      fill="black" />
    <path
      d="M42.4071 2.01567C42.4071 0.986043 41.5724 0.151367 40.5428 0.151367C39.5131 0.151367 38.6785 0.986043 38.6785 2.01567V4.15137H40.7199C41.2116 4.15137 41.6861 4.33251 42.0527 4.6602L42.4071 4.97693V2.01567Z"
      fill="black" />
  </g>
  <defs>
    <clipPath id="clip0_27_116">
      <rect width="64" height="64" fill="white" />
    </clipPath>
  </defs>
</svg>